<?xml version="1.0" encoding="UTF-8" standalone="no"?>
<!-- Created with Inkscape (http://www.inkscape.org/) -->

<svg
   width="100mm"
   height="100mm"
   viewBox="0 0 100 100"
   version="1.1"
   id="svg1"
   xml:space="preserve"
   inkscape:version="1.4.2 (ebf0e940d0, 2025-05-08)"
   sodipodi:docname="usericon.svg"
   xmlns:inkscape="http://www.inkscape.org/namespaces/inkscape"
   xmlns:sodipodi="http://sodipodi.sourceforge.net/DTD/sodipodi-0.dtd"
   xmlns="http://www.w3.org/2000/svg"
   xmlns:svg="http://www.w3.org/2000/svg"><sodipodi:namedview
     id="namedview1"
     pagecolor="#505050"
     bordercolor="#eeeeee"
     borderopacity="1"
     inkscape:showpageshadow="0"
     inkscape:pageopacity="0"
     inkscape:pagecheckerboard="0"
     inkscape:deskcolor="#505050"
     inkscape:document-units="mm"
     showgrid="true"
     showguides="true"
     inkscape:zoom="1.4235831"
     inkscape:cx="72.001419"
     inkscape:cy="162.61784"
     inkscape:window-width="1920"
     inkscape:window-height="1008"
     inkscape:window-x="0"
     inkscape:window-y="0"
     inkscape:window-maximized="1"
     inkscape:current-layer="layer1"><inkscape:page
       x="0"
       y="0"
       width="100"
       height="100"
       id="page1"
       margin="0"
       bleed="0" /><inkscape:grid
       id="grid3"
       units="mm"
       originx="-10"
       originy="0"
       spacingx="0.99999999"
       spacingy="0.99999996"
       empcolor="#0099e5"
       empopacity="0.30196078"
       color="#0099e5"
       opacity="0.14901961"
       empspacing="5"
       enabled="true"
       visible="true" /></sodipodi:namedview><defs
     id="defs1" /><g
     inkscape:label="Layer 1"
     inkscape:groupmode="layer"
     id="layer1"
     transform="translate(-1.4505644,-171.73217)"><path
       id="path2-2-0-5"
       style="fill:#ffffff;fill-opacity:1;stroke-width:7.01625"
       d="m 41.450753,171.73203 a 5,5 0 0 0 -5.000212,5.00021 5,5 0 0 0 5.000212,4.9997 5,5 0 0 0 4.999694,-4.9997 5,5 0 0 0 -4.999694,-5.00021 z m 4.999694,5.00021 a 5,5 0 0 0 5.000212,4.9997 5,5 0 0 0 4.999695,-4.9997 5,5 0 0 0 -4.999695,-5.00021 5,5 0 0 0 -5.000212,5.00021 z m 9.999907,0 a 5,5 0 0 0 5.000211,4.9997 5,5 0 0 0 4.999695,-4.9997 5,5 0 0 0 -4.999695,-5.00021 5,5 0 0 0 -5.000211,5.00021 z m 5.000211,4.9997 a 5,5 0 0 0 -5.000211,5.00021 5,5 0 0 0 5.000211,4.99969 5,5 0 0 0 4.999695,-4.99969 5,5 0 0 0 -4.999695,-5.00021 z m 4.999695,5.00021 a 5,5 0 0 0 5.000212,4.99969 5,5 0 0 0 5.000211,-4.99969 5,5 0 0 0 -5.000211,-5.00021 5,5 0 0 0 -5.000212,5.00021 z m 5.000212,4.99969 a 5,5 0 0 0 -5.000212,5.00021 5,5 0 0 0 5.000212,5.00022 5,5 0 0 0 5.000211,-5.00022 5,5 0 0 0 -5.000211,-5.00021 z m 0,10.00043 a 5,5 0 0 0 -5.000212,4.99969 5,5 0 0 0 5.000212,5.00021 5,5 0 0 0 5.000211,-5.00021 5,5 0 0 0 -5.000211,-4.99969 z m -5.000212,4.99969 a 5,5 0 0 0 -4.999695,-4.99969 5,5 0 0 0 -5.000211,4.99969 5,5 0 0 0 5.000211,5.00021 5,5 0 0 0 4.999695,-5.00021 z m -4.999695,5.00021 a 5,5 0 0 0 -5.000211,4.9997 5,5 0 0 0 5.000211,5.00021 5,5 0 0 0 4.999695,-5.00021 5,5 0 0 0 -4.999695,-4.9997 z m -5.000211,4.9997 a 5,5 0 0 0 -4.999695,-4.9997 5,5 0 0 0 -5.000212,4.9997 5,5 0 0 0 5.000212,5.00021 5,5 0 0 0 4.999695,-5.00021 z m -9.999907,0 a 5,5 0 0 0 -4.999694,-4.9997 5,5 0 0 0 -5.000212,4.9997 5,5 0 0 0 5.000212,5.00021 5,5 0 0 0 4.999694,-5.00021 z m -4.999694,-4.9997 a 5,5 0 0 0 4.999694,-5.00021 5,5 0 0 0 -4.999694,-4.99969 5,5 0 0 0 -5.000212,4.99969 5,5 0 0 0 5.000212,5.00021 z m -5.000212,-5.00021 a 5,5 0 0 0 -5.000212,-4.99969 5,5 0 0 0 -4.999694,4.99969 5,5 0 0 0 4.999694,5.00021 5,5 0 0 0 5.000212,-5.00021 z m -5.000212,-4.99969 a 5,5 0 0 0 5.000212,-5.00022 5,5 0 0 0 -5.000212,-5.00021 5,5 0 0 0 -4.999694,5.00021 5,5 0 0 0 4.999694,5.00022 z m 0,-10.00043 a 5,5 0 0 0 5.000212,-4.99969 5,5 0 0 0 -5.000212,-5.00021 5,5 0 0 0 -4.999694,5.00021 5,5 0 0 0 4.999694,4.99969 z m 5.000212,-4.99969 a 5,5 0 0 0 5.000212,4.99969 5,5 0 0 0 4.999694,-4.99969 5,5 0 0 0 -4.999694,-5.00021 5,5 0 0 0 -5.000212,5.00021 z m 9.999906,0 a 5,5 0 0 0 5.000212,4.99969 5,5 0 0 0 4.999695,-4.99969 5,5 0 0 0 -4.999695,-5.00021 5,5 0 0 0 -5.000212,5.00021 z m 5.000212,4.99969 a 5,5 0 0 0 -5.000212,5.00021 5,5 0 0 0 5.000212,5.00022 5,5 0 0 0 4.999695,-5.00022 5,5 0 0 0 -4.999695,-5.00021 z m 4.999695,5.00021 a 5,5 0 0 0 5.000211,5.00022 5,5 0 0 0 4.999695,-5.00022 5,5 0 0 0 -4.999695,-5.00021 5,5 0 0 0 -5.000211,5.00021 z m -4.999695,5.00022 a 5,5 0 0 0 -5.000212,4.99969 5,5 0 0 0 5.000212,5.00021 5,5 0 0 0 4.999695,-5.00021 5,5 0 0 0 -4.999695,-4.99969 z m -5.000212,-5.00022 a 5,5 0 0 0 -4.999694,-5.00021 5,5 0 0 0 -5.000212,5.00021 5,5 0 0 0 5.000212,5.00022 5,5 0 0 0 4.999694,-5.00022 z m -19.999812,34.99994 a 5,5 0 0 0 -5.000212,5.00021 5,5 0 0 0 5.000212,4.99969 5,5 0 0 0 4.999694,-4.99969 5,5 0 0 0 -4.999694,-5.00021 z m 4.999694,5.00021 a 5,5 0 0 0 5.000212,4.99969 5,5 0 0 0 5.000212,-4.99969 5,5 0 0 0 -5.000212,-5.00021 5,5 0 0 0 -5.000212,5.00021 z m 10.000424,0 a 5,5 0 0 0 4.999694,4.99969 5,5 0 0 0 5.000212,-4.99969 5,5 0 0 0 -5.000212,-5.00021 5,5 0 0 0 -4.999694,5.00021 z m 9.999906,0 a 5,5 0 0 0 4.999695,4.99969 5,5 0 0 0 5.000211,-4.99969 5,5 0 0 0 -5.000211,-5.00021 5,5 0 0 0 -4.999695,5.00021 z m 9.999906,0 a 5,5 0 0 0 4.999695,4.99969 5,5 0 0 0 5.000212,-4.99969 5,5 0 0 0 -5.000212,-5.00021 5,5 0 0 0 -4.999695,5.00021 z m 9.999907,0 a 5,5 0 0 0 5.000211,4.99969 5,5 0 0 0 4.999695,-4.99969 5,5 0 0 0 -4.999695,-5.00021 5,5 0 0 0 -5.000211,5.00021 z m 5.000211,4.99969 a 5,5 0 0 0 -5.000211,5.00021 5,5 0 0 0 5.000211,4.9997 5,5 0 0 0 4.999695,-4.9997 5,5 0 0 0 -4.999695,-5.00021 z m 4.999695,5.00021 a 5,5 0 0 0 5.000212,4.9997 5,5 0 0 0 4.999695,-4.9997 5,5 0 0 0 -4.999695,-5.00021 5,5 0 0 0 -5.000212,5.00021 z m 5.000212,4.9997 a 5,5 0 0 0 -5.000212,5.00021 5,5 0 0 0 5.000212,5.00021 5,5 0 0 0 4.999695,-5.00021 5,5 0 0 0 -4.999695,-5.00021 z m 0,10.00042 a 5,5 0 0 0 -5.000212,4.9997 5,5 0 0 0 5.000212,5.00021 5,5 0 0 0 4.999695,-5.00021 5,5 0 0 0 -4.999695,-4.9997 z m -5.000212,4.9997 a 5,5 0 0 0 -4.999695,-4.9997 5,5 0 0 0 -5.000211,4.9997 5,5 0 0 0 5.000211,5.00021 5,5 0 0 0 4.999695,-5.00021 z m -9.999906,0 a 5,5 0 0 0 -5.000212,-4.9997 5,5 0 0 0 -4.999695,4.9997 5,5 0 0 0 4.999695,5.00021 5,5 0 0 0 5.000212,-5.00021 z m -9.999907,0 a 5,5 0 0 0 -5.000211,-4.9997 5,5 0 0 0 -4.999695,4.9997 5,5 0 0 0 4.999695,5.00021 5,5 0 0 0 5.000211,-5.00021 z m -9.999906,0 a 5,5 0 0 0 -5.000212,-4.9997 5,5 0 0 0 -4.999694,4.9997 5,5 0 0 0 4.999694,5.00021 5,5 0 0 0 5.000212,-5.00021 z m -9.999906,0 a 5,5 0 0 0 -5.000212,-4.9997 5,5 0 0 0 -5.000212,4.9997 5,5 0 0 0 5.000212,5.00021 5,5 0 0 0 5.000212,-5.00021 z m -10.000424,0 a 5,5 0 0 0 -4.999694,-4.9997 5,5 0 0 0 -5.000212,4.9997 5,5 0 0 0 5.000212,5.00021 5,5 0 0 0 4.999694,-5.00021 z m -9.999906,0 a 5,5 0 0 0 -4.999695,-4.9997 5,5 0 0 0 -5.000212,4.9997 5,5 0 0 0 5.000212,5.00021 5,5 0 0 0 4.999695,-5.00021 z m -4.999695,-4.9997 a 5,5 0 0 0 4.999695,-5.00021 5,5 0 0 0 -4.999695,-5.00021 5,5 0 0 0 -5.000212,5.00021 5,5 0 0 0 5.000212,5.00021 z m 0,-10.00042 a 5,5 0 0 0 4.999695,-4.9997 5,5 0 0 0 -4.999695,-5.00021 5,5 0 0 0 -5.000212,5.00021 5,5 0 0 0 5.000212,4.9997 z m 4.999695,-4.9997 a 5,5 0 0 0 5.000212,4.9997 5,5 0 0 0 4.999694,-4.9997 5,5 0 0 0 -4.999694,-5.00021 5,5 0 0 0 -5.000212,5.00021 z m 9.999906,0 a 5,5 0 0 0 5.000212,4.9997 5,5 0 0 0 5.000212,-4.9997 5,5 0 0 0 -5.000212,-5.00021 5,5 0 0 0 -5.000212,5.00021 z m 10.000424,0 a 5,5 0 0 0 4.999694,4.9997 5,5 0 0 0 5.000212,-4.9997 5,5 0 0 0 -5.000212,-5.00021 5,5 0 0 0 -4.999694,5.00021 z m 9.999906,0 a 5,5 0 0 0 4.999695,4.9997 5,5 0 0 0 5.000211,-4.9997 5,5 0 0 0 -5.000211,-5.00021 5,5 0 0 0 -4.999695,5.00021 z m 9.999906,0 a 5,5 0 0 0 4.999695,4.9997 5,5 0 0 0 5.000212,-4.9997 5,5 0 0 0 -5.000212,-5.00021 5,5 0 0 0 -4.999695,5.00021 z m 4.999695,4.9997 a 5,5 0 0 0 -4.999695,5.00021 5,5 0 0 0 4.999695,5.00021 5,5 0 0 0 5.000212,-5.00021 5,5 0 0 0 -5.000212,-5.00021 z m 5.000212,5.00021 a 5,5 0 0 0 5.000211,5.00021 5,5 0 0 0 4.999695,-5.00021 5,5 0 0 0 -4.999695,-5.00021 5,5 0 0 0 -5.000211,5.00021 z m -9.999907,0 a 5,5 0 0 0 -5.000211,-5.00021 5,5 0 0 0 -4.999695,5.00021 5,5 0 0 0 4.999695,5.00021 5,5 0 0 0 5.000211,-5.00021 z m -9.999906,0 a 5,5 0 0 0 -5.000212,-5.00021 5,5 0 0 0 -4.999694,5.00021 5,5 0 0 0 4.999694,5.00021 5,5 0 0 0 5.000212,-5.00021 z m -9.999906,0 a 5,5 0 0 0 -5.000212,-5.00021 5,5 0 0 0 -5.000212,5.00021 5,5 0 0 0 5.000212,5.00021 5,5 0 0 0 5.000212,-5.00021 z m -10.000424,0 a 5,5 0 0 0 -4.999694,-5.00021 5,5 0 0 0 -5.000212,5.00021 5,5 0 0 0 5.000212,5.00021 5,5 0 0 0 4.999694,-5.00021 z" /></g></svg>
